<!DOCTYPE svg PUBLIC "-//W3C//DTD SVG 1.1//EN" "http://www.w3.org/Graphics/SVG/1.1/DTD/svg11.dtd">
<!-- Uploaded to: SVG Repo, www.svgrepo.com, Transformed by: SVG Repo Mixer Tools -->
<svg fill="#D6D6D6" width="800px" height="800px" viewBox="0 0 24 24" xmlns="http://www.w3.org/2000/svg">
<g id="SVGRepo_bgCarrier" stroke-width="0"/>
<g id="SVGRepo_tracerCarrier" stroke-linecap="round" stroke-linejoin="round"/>
<g id="SVGRepo_iconCarrier">
<path d="M10,21h4a2,2,0,0,1-4,0ZM3.076,18.383a1,1,0,0,1,.217-1.09L5,15.586V10a7.006,7.006,0,0,1,6-6.92V2a1,1,0,0,1,2,0V3.08A7.006,7.006,0,0,1,19,10v5.586l1.707,1.707A1,1,0,0,1,20,19H4A1,1,0,0,1,3.076,18.383ZM6.414,17H17.586l-.293-.293A1,1,0,0,1,17,16V10A5,5,0,0,0,7,10v6a1,1,0,0,1-.293.707Z"/>
</g>
</svg>